# xmcd
#
# Track frame offsets: 
#        150
#        15865
#        30594
#        45765
#        61810
#        78817
#        91240
#        105990
#        123555
#        138585
#        154752
#        168405
#        187327
#        206815
#        227037
#        243100
#        265462
#        280015
#        294962
#
# Disc length: 4131 seconds
#
# Revision: 3
# Processed by: cddbd v1.5.2PL0 Copyright (c) Steve Scherf et al.
# Submitted via: ExactAudioCopy v0.99pb5
#
DISCID=11102113,f3102113
DTITLE=Various Artist - Die schönsten deutschen Schlager der 80er - CD 5
DYEAR=1998
DGENRE=Schlager
TTITLE0=Die Flippers - Die rote Sonne von Barbados
TTITLE1=Die Flippers - Malaika
TTITLE2=Die Flippers - Mexico
TTITLE3=Die Flippers - St. Tropez
TTITLE4=Die Flippers - Lotosblume
TTITLE5=Die Flippers - Je t'aime heißt: Ich liebe dich
TTITLE6=Die Flippers - Acapulco
TTITLE7=Nicki - Wegen dir
TTITLE8=Nicki - I wär am liabsten mit dir ganz alloa
TTITLE9=Nicki - Servus, mach's guat
TTITLE10=Nicki - Wenn i mit dir tanz
TTITLE11=Nicki - Mit dir des wär mei Leben
TTITLE12=Rex Gildo - Wenn du mich brauchst
TTITLE13=Rex Gildo - Wenn ich je deine Liebe verlier
TTITLE14=Udo Jürgens - Ich sah nur sie
TTITLE15=Udo Jürgens - 5 Minuten vor 12
TTITLE16=Olaf Berger - In dieser Nacht
TTITLE17=Olaf Berger - Es brennt wie Feuer
TTITLE18=Olaf Berger - Gefangen von Gefühlen
EXTD=
EXTT0=
EXTT1=
EXTT2=
EXTT3=
EXTT4=
EXTT5=
EXTT6=
EXTT7=
EXTT8=
EXTT9=
EXTT10=
EXTT11=
EXTT12=
EXTT13=
EXTT14=
EXTT15=
EXTT16=
EXTT17=
EXTT18=
PLAYORDER=
